# xmcd CD database file
#
# Track frame offsets:
#	150
#	26093
#	48195
#	74140
#
# Disc length: 1280 seconds
#
# Revision: 0
# Processed by: cddbd v1.5.1PL2 Copyright (c) Steve Scherf et al.
# Submitted via: CDex 1.51
#
DISCID=3504fe04
DTITLE=ROUND TABLE featuring Nino - 夏待ち
DYEAR=2006
DGENRE=Anime
TTITLE0=夏待ち
TTITLE1=潮騒
TTITLE2=夏待ち (instrumental)
TTITLE3=潮騒 (instrumental)
EXTD=YEAR: 2006
EXTT0=
EXTT1=
EXTT2=
EXTT3=
PLAYORDER=
